<svg xmlns="http://www.w3.org/2000/svg" viewBox="0 0 512 511.07"><title>postcss</title><path d="M511.8,242.19h0c-.17-6.56-.52-13.3-.86-19.87-.35-6.74-.52-13.48-1.21-20.22-1.21-9.17-2.42-18.5-4.49-27.49-1.56-7.43-4.15-14.51-6.74-21.6-3.29-8.3-6.57-16.77-10.72-24.72C481,115.5,472.22,104.1,464.1,92.17c-5.36-7.61-12.27-13.83-17.46-21.6-2.94-4.5-7.26-8.3-11.58-11.76-6.91-5.53-14.17-10.54-21.43-15.38-5.53-3.8-11.06-7.43-16.94-10.72C392,30.12,387,28.05,382.17,25.8c-5.53-2.59-10.88-5.7-17.11-6.91-1.55-.35-2.94-.87-4.49-1.38-4-1.39-7.78-2.94-11.75-4.15-6.05-1.9-11.93-4.15-18.15-5.71a168.71,168.71,0,0,0-18.49-3.46c-6.92-1-14-1.38-20.92-2.07-4.49-.52-9-1-13.31-1.21C271.39.57,264.64.57,258.08.39a96,96,0,0,0-10-.34,147.19,147.19,0,0,0-15,1.38c-4.83.52-9.67,1.38-14.34,2.07-5.7.69-11.41,1-17.11,1.73-5.36.69-10.89,1.73-16.25,2.59-1.9.35-3.8,1-5.7,1.39-4.15.86-8.47,1.21-12.62,2.59-7.43,2.25-14.86,4.84-22.12,7.6a205,205,0,0,0-19.71,9.17c-6.56,3.62-12.79,8-19,12.1-5.88,4-11.75,8.12-17.46,12.61A201.33,201.33,0,0,0,73,67.28c-2.77,2.77-5,6-7.61,9.16-4.32,5-8.64,9.85-12.79,15-3.46,4.32-6.57,8.81-9.85,13.31a220.89,220.89,0,0,0-15.56,24.89c-1.9,3.45-3.63,6.91-5.36,10.37-2.59,5.18-5.35,10.2-7.77,15.55a66.14,66.14,0,0,0-4.15,11.58q-3.66,12.76-7.09,25.58C.72,200.37.2,208.32,0,216.1a163,163,0,0,0,1.21,20.56c.17,1.73-.87,3.81,1.21,5.19.17,0,0,.69-.18.86a1.67,1.67,0,0,0,1,2.42.64.64,0,0,1,.17.35H2.62c-.52,1.55,1.21,2.76.52,4.49-.17.35.52,1,.86,1.56a5.9,5.9,0,0,0,0,1.73c.18,1.55.87,3.11.87,4.84,0,1.21,1,2.59,1.38,3.8a2,2,0,0,1-.35,1.73c-1,1.21-.86,2.24.7,2.94a2,2,0,0,1,.86,1.2,19.92,19.92,0,0,1-.52,3.12c.35.34.52.69.35,1,0,.52-.52,1-.35,1.39a22.93,22.93,0,0,1,2.08,9,6.49,6.49,0,0,0,.69,2.25,2.57,2.57,0,0,1,1,.17l-1,3.11a14.28,14.28,0,0,1,2.42-1A54.5,54.5,0,0,0,13.85,293a3.09,3.09,0,0,0,1,1c-.17.34-.17,1-.52,1.21.69,3.11,1,6.05,2.25,9,.17,0,.35-.17.52-.17-.52-3.11-.87-6.39-1.38-9.51v-1a1.65,1.65,0,0,1,.51-.18,11.66,11.66,0,0,1,.52,2.08c1.38,0,3.46.86,4.84.86.18-.52.35-1.21.52-1.55-1-1-1.9-2.6-2.94-3.63a5.26,5.26,0,0,1,0,2.42c-.69-.35-1.55-.69-2.42-1a32.62,32.62,0,0,1,2.42-2.77c0-1.55-.86-2.93-3.28-2.76,1-.35,2.07-.86,3.28-1.21a13.3,13.3,0,0,0,.52,1.38c1.38-2.42-.69-4.32-.69-6.74.17-2.94-1.56-5.87-2.07-9-.87-4.84-.7-12.09-1.21-16.93,0-.35-.52-.7-.87-1-.17.17-1,2.42-1.21,2.59.52,4.15,1,8.3,1.38,12.45-.17,0-.34,0-.34.17-.69-3.63-1.38-7.43-2.25-11.58a20.19,20.19,0,0,0-.34,2.42c-.52-.17-.69-.35-1.56-.69.69,1.55,1.38,2.59,1.9,3.8a5.68,5.68,0,0,0-2.59-.35v4.84a23.15,23.15,0,0,1-3.11-4.32c-.35-1.38-.52-2.76-.87-4.15l.52-.17a9.5,9.5,0,0,1-.52-1.73c-.19-1.38-.36-2.76-.51-4.15.17-.17.86-.34,1.21-.69L5.21,249.8a28.81,28.81,0,0,0,3.11.34c0-.34.18-.51,0-.69-1.72-1.55-.52-2.94.18-4.32.34-.69,1.55-.86,1.9-1.55,1.38-2.6,3.63-4.67,3.63-8a47,47,0,0,1,.69-4.84c.34-2.94.69-5.88.86-8.82.35-3.8,0-7.6.87-11.23,1.38-6.05,3.11-12.1,5-18.15,1.38-4.32,2.94-8.47,4.67-12.79,2.59-6.74,5-13.48,8.29-19.88,4.67-9.33,10-18.32,15.21-27.48,3.29-5.7,6.74-11.06,10.37-16.59,3.46-5.36,6.92-10.89,10.89-15.9A139.51,139.51,0,0,1,89.21,80.42c6.92-6.22,13.48-12.62,20.92-18.32a211.3,211.3,0,0,1,30.76-19.71A236,236,0,0,1,168,30.64c5.87-2.25,12.27-3.28,18.32-5.19A72.9,72.9,0,0,1,207.43,22c4.67-.18,9.16-.69,13.83-1.21,4.15-.35,8.3-.69,12.79-1.21a7.58,7.58,0,0,0-.86,1.38c-1.9,2.77-4,5.53-5.88,8.3-1.55,2.24-3.28,4.66-4.84,6.91-2.76,3.63-5.7,7.26-8.29,11.06-4,5.71-7.61,11.58-11.76,17.29-4.15,5.53-8.64,10.71-13,16.07-5.7,7.43-11.06,15-16.77,22.47C167.51,110.15,162,116.89,157,124c-4.5,6.22-8.47,12.79-12.79,19.19-6.4,9.5-12.79,18.84-19.19,28.34q-7.51,10.88-15.21,21.61a4.06,4.06,0,0,1-1.38,1c-.35.35-1,.7-1,1a19.67,19.67,0,0,1-.86,3.46c-1.39,2.59-2.77,5.18-4.32,7.6-.87,1.39-2.08,2.6-3.12,4-.34-.17-.52-.35-.86-.35.69-1.73,3.63-2.76,2.25-5.35-.87,1.38-1.73,2.59-2.6,4l-2.07,4.15c.69.52,1.9.86.69,1.9-.52.86-1,1.9-1.55,2.77.17,0,.17.17.34.17.52-.69,1-1.21,1.56-1.9.17,0,.34.17.52.17a25.75,25.75,0,0,1-2.42,4.84c-.7,1.38-2.42,2.42-3.63,3.46.17.17,1.38.69,1.55.86.52-.69.69-.35,1.21-1,.35.52.87-.34,1,.18a8,8,0,0,0,1.21-1.73,6.27,6.27,0,0,1,3.46-3.8,6.69,6.69,0,0,0,1.72-1.39c5.19-5.36,10.55-10.54,15.21-16.24,7.26-8.82,13.83-18,20.74-27,2.94-3.8,6.4-7.6,9.51-11.23.35.17.69.17.87.34-.35,3.63-.7,7.44-.87,11.07-.52,6.39-.86,12.79-1.38,19.36-.17,2.59,0,5.18-.17,7.77,0,.69-.52,1.21-.52,1.9,0,1.73.52,3.63.52,5.36-.52,6.4-1.21,12.62-1.73,19-.18,1.39.52,2.77.86,4a4.39,4.39,0,0,0-.86-.69c0,10,1.9,19.88.34,29.73.69-.18,1-.35,1-.7a26.67,26.67,0,0,0,.52-3.63,21.09,21.09,0,0,0,0-3.28v-1.73c.17-3.11.86-6.39.52-9.5a32.31,32.31,0,0,1,.34-10c.35-1.38-.17-3.11.69-4.84v2.59c-.17,9.86.18,19.71-1.21,29.56-.17.86.52,2.42-1.38,2.25-.17,0-.34.86-.69,1.38-.86,1.73,1,4-.69,5.7-.35.35.34,1.9.52,2.94,0,.35.17.69,0,.87-.69,1.21-.69,1.21.34,1.38.18,3.8.52,7.26.69,10.89h.52c2.25-6.57.87-13.31,2.08-20.05a69.68,69.68,0,0,1,.17,8.47c0,4.49-.17,8.81-.35,13.31a13.63,13.63,0,0,1-.34,2.59c-.52,2.42-.69,4.84-1.56,7.08-.69,1.73-.34,4.33-.34,6.4v6.57c0,.17.52.69.52,1.38.17,1.56-.7,3.11-.18,4.84.18.35-.17.86-.34,1.21a2.41,2.41,0,0,0-.18,1.55l.52,2.6c0,.17.18.34.35.69a5.64,5.64,0,0,0,.17-1.38c2.94.34,1.38,2.93,2.77,4.32-.69.34-1.21.52-1.21.69a7.92,7.92,0,0,1,.52,1.9,39.92,39.92,0,0,1-.35,4.49c0,4-.17,8-.17,11.76,0,.52.17,1,.17,1.55,0,.35-.17.69-.17,1.21v3.63H148a9.68,9.68,0,0,1-1.21,1.56c-.17,0-.69,0-.69-.18V328.79h-2.6c-.34,10.37.52,19.7-1.38,29.38a45.07,45.07,0,0,1-5,.52c-5.36,0-10.72,0-16.07.17-6.4,0-12.62.17-19,.17-3.11,0-6.39.35-9.5.35-4.15,0-8.47-.52-12.62-.52-6.4,0-12.62.52-19,.69-4.67.17-9.34.17-14,.35-3.11.17-6.23.34-9.34.69a27.55,27.55,0,0,0-4.32,1.21,14.68,14.68,0,0,0-2.76,0c-1.73.34-3.29,1.38-5,1.73-2.6.52-3.29,1.21-2.94,3.8v1.73a5.16,5.16,0,0,0-1.21-.87.59.59,0,0,0-.35.18c.17.52.52.86.69,1.38.69-.35,1.56-1.21,2.25-1.21H26.3c-.35,0-.52,1-1,1.9,1-.39,2.08-.79,3.11-1.21a4.68,4.68,0,0,1,.18,1.38c2.42-.17,4.66-.86,6.74-.34,6.74,1.73,13.65,2.42,20.56,3.11,4.5.34,8.82.52,13.31.69,6.4.35,12.79.69,19.19.69,5.36,0,10.54-.52,15.9-.52,7.43,0,14.86.35,22.3.52,1.55,0,3.28-.17,5-.17h12.62c11.23-.35,22.46-.52,33.7-.87,6.39-.17,13-.51,19.36-.69l19.7-.52c7.61-.17,15.21-.17,22.64-.34,5.71,0,11.24-.17,16.94-.35,6.4-.17,13-.69,19.36-1,3.46-.18,6.91-.52,10.37-.87,4.15-.34,8.47-.86,12.62-1,6.22-.34,12.61-.51,18.84-.86,7.77-.52,15.55-1.21,23.5-1.38,7.26-.35,14.69-.17,22-.35,6.4-.17,12.79-.52,19.36-.69l10.89-.52s7.26-.17,10.89-.52c6.22-.34,12.44-1,18.66-1.21,4-.17,8,0,11.93-.17,6.4-.17,13-.52,19.36-.52,2.42,0,5,.35,8.12.52-1.38,1.21-2.24,1.9-3.28,2.77a10.69,10.69,0,0,1,2.07.86c0,.17-.17.35-.17.69-.86,0-1.73.18-2.59.18a10.67,10.67,0,0,0-1,2.94h3.11c-1.21,0-2.25,1.55-3.46,2.59.18.17.35.17.52.34-1.9-.69-3.11-.34-3.8,1.56a3.85,3.85,0,0,0,1.38.17c-.17.52-.34,1-.52,1.73a2.51,2.51,0,0,0-.34,1.21l-.52-.52a2.24,2.24,0,0,0-.17-1c-1,1-2.6,1.73-1.73,4-.69.34-1.56.69-2.42,1.21a7.22,7.22,0,0,1,.69,1.21c-1.55.17-3.11.52-2.76,2.42.69.17,1.38.52,1.9.69-.87.34-1.73.86-2.6,1.21-.17.34-.34,1.21-.69,1.38-2.42.52-1,1.38-.34,2.25a7.12,7.12,0,0,1-1.56.86,2.87,2.87,0,0,1,1.21.69,10.35,10.35,0,0,1-1.21.7,6.17,6.17,0,0,0,1,.52c-.69.51-1.56,1.2-2.59,2.07a1.57,1.57,0,0,0,.17.86,15.37,15.37,0,0,0-2.08,2.42c-.69,1-1,2.42-1.9,3.46-3.63,4-6.22,8.64-10.89,11.75a39,39,0,0,0-4.84,4.32c-3.11,2.94-5.87,6.22-9.16,9-4.32,3.63-8.81,6.91-13.48,10.2-5.7,4-11.4,7.95-17.11,11.75-3.11,2.07-6.57,3.63-9.85,5.53s-6.39,3.63-9.68,5.53c-2.07,1.39-4,3.29-6.22,4.32-5.71,2.42-11.75,4.5-17.63,6.74-.52.18-.86.35-1.38.52-4.32,1.9-8.47,4-12.79,5.53a98.72,98.72,0,0,1-12.28,3.29c-1.38.34-2.94,0-4.49.17-2.94.52-5.88,1.21-8.81,1.56-7.61,1-15.21,1.72-22.82,2.76-4.49.52-8.81,1.38-13.31,1.9-3.11.18-6.39-.17-9.5-.17-2.25,0-4.67.52-6.92.17-3.63-.52-7.26-1.38-10.89-2.07-.86-.17-2.07-.52-2.76-.17-1.38.69-2.59-.35-4,0-.86.17-1.72-.52-2.59-.52-.69-.18-1.55.17-2.42,0-1.9-.52-3.63-1.21-5.7-1s-4.15-.86-6.4-1.38c-3.11-.69-6-1.39-9.16-2.08a15,15,0,0,1-3.45-1.55,3.35,3.35,0,0,1-1.56.52c-2.94-.52-5.88-.69-8.64-1.73-2.42-.87-4.67-2.08-7.26-1.73-.69.17-1.21-.17-1.9-.17-.52-.69-1-2.08-1.56-2.08-3.46.18-5.53-2.76-8.47-3.63-1.55-.52-2.76-2.24-4.32-2.76-3.8-1.56-6.91-4.84-11.23-5.36a24.09,24.09,0,0,1-4.32-1.38,14.34,14.34,0,0,0,1.38,1.73l-.35.34c-4.66-2.76-9.33-5.53-14-8.12-.69-.18-1.21-.87-1.73-1.21L131.56,450c-.52-.35-1.56-.87-1.56-.7-1,1.22-2.07.18-2.76-.17-4.67-3.28-10-5.36-14.52-9-1.9-1.55-4.15-2.59-5.53-4.49a27.27,27.27,0,0,0-8.64-6.74c-2.6-1.38-5-2.94-7.44-4.49-1.21-.87-2.42-1.9-2.42-3.8,0-1.22-.52-2.42-2.07-1.73-.69-1-1.38-2.25-2.25-2.6-2.07-.86-3.46-2.42-5-3.8s-2.76-3.28-4.67-4c-3.45-1.39-5.53-4.32-7.6-6.74-4.84-5.71-9.16-11.93-13.66-18a11.29,11.29,0,0,0-1.55-1.38l-.17.17c.86,1.73,1.72,3.28,2.59,5-.17.17-.52.35-.69.52-1-1.21-2.25-2.42-3.29-3.63-.17.17-.34.35-.52.35l12.45,19.7c1,1.56,1.9,3.11,2.94,4.67a2.51,2.51,0,0,1-.69.52,6.83,6.83,0,0,1-4.5-3.29c-1.55-2.76-3.28-4.49-6.74-4.15a30.55,30.55,0,0,1-.86-3.8,14.36,14.36,0,0,1-2.42-.17c2.42,3.8,4.49,7.08,6.74,10.89-.87-.52-1.38-.87-1.73-1,3.11,3.28,5.36,7.43,9.33,9.51.87,4,5.36,5.87,6.4,9.68-.87-.18-1.56-.35-2.42-.52-1.38-1.73-2.94-3.46-4.49-5.36a8.74,8.74,0,0,0,1.55,3.11,65.9,65.9,0,0,0,6.4,7.43c.86.87,2.07,1.21,2.07,2.77a4.84,4.84,0,0,1,1.38-.87,11.09,11.09,0,0,0-.69,1.56c.69,0,1.21.17,1.73.17.35,1-.17,2.59,1.9,2.25.17,0,.35.17.52.34.86,2.25,2.25,2.25,4.15,1.39a1.34,1.34,0,0,1,1.38.34c.86,1.9,2.07,2.08,3.63.69,0,.87.17,1.73.17,2.42h.69c0-.34-.17-.86-.17-1.73.87.7,1.38,1,1.73,1.39a29.37,29.37,0,0,0,5.7,6.56c3.29,2.77,6.22,5.71,9.34,8.3a132,132,0,0,0,19.53,13c8.29,4.67,16.24,9.68,24.71,14.18a133.93,133.93,0,0,0,32.32,11.58c4.15.86,8.13,1.73,12.28,2.76,3.63,1,7.26,2.6,10.88,3.46,5.54,1.21,11.24,2.25,16.77,3.28,1.21.18,2.42.35,3.8.52v.35c1.56,0,3.46-.69,3.81-.18.86,1.39,1.55.7,2.59.52a15,15,0,0,1,4-.34c4.84.17,9.51,1.21,14.35.86,1,0,2.59-.86,3.46.87.34-.18.51-.35.86-.52.69-.18,1.56-.18,2.25-.35v.35a8,8,0,0,1-1.39.34,15.39,15.39,0,0,1,1.9.52,2.2,2.2,0,0,1-.86.52,7.91,7.91,0,0,0-1.55.86c6.22,1.21,12.09,1.39,17.28,0v-1h.69a2.34,2.34,0,0,0,.35,1,55.21,55.21,0,0,0,23.16-2.93c.69.86,1.21,2.07,2.24.34.35-.52,1.21-.69,1.9-.86,1.56-.35,3.46-1,4.84-.52,1.56.52,2.08-.87,3.29-.87a32.1,32.1,0,0,0,5.87-.51c1-.18,2.08-.7,3.29-1a.64.64,0,0,0-.17-.52,29,29,0,0,0-3.63-.34c2.07-1,4-1.9,5.87-2.77,0,.17.18.17.18.35-.52.17-.87.86-1.56.86H321c-.52,0-1.21,1.56-2.07,2.59,6.22-1.55,11.92-2.93,17.45-4.32v-.34c-.69.17-1.21.17-1.73.34-.17-3.63,3.8-2.42,5.19-4.49-1.73.52-3.46,1-5.19,1.38v-.35c5.88-2.59,11.93-5.18,17.8-7.77,0,.17.18.17.18.34-1,.69-2.07,1.21-3.63,2.08a21.59,21.59,0,0,1,2.25.34c0,.52,0,.87-.18,1,2.94-.17,2.25-2.77,3.11-4.32.52.17,1.21.52,1.73.34a42.94,42.94,0,0,0,4.5-1.38c1.73-.52,3.45-1,5.18-1.73,2.77-1.21,5.36-2.76,8.13-4.15a8.4,8.4,0,0,1,2.07,0,1.74,1.74,0,0,0,1.21-.69c.69-.52,1.38-1.55,1.9-1.38,2.42.35,4.15-.52,4.84-2.76.17,0,.17-.18.35-.18a24.07,24.07,0,0,1,2.59-1.9c3.8-2.07,7.43-4.15,11.23-6.22.18-.17.52,0,.87,0a4.31,4.31,0,0,0,1.55-.17c2.25-1,4.32-2.25,6.4-3.46-.52-.17,0-.35-1.73-.52v-.35a20.05,20.05,0,0,0,3.28-.86l-.34-.34c4.49-4.5,10.2-7.78,14.52-11.58a10.11,10.11,0,0,0,1.72.34,4.14,4.14,0,0,0,.18-1.38,15.91,15.91,0,0,1,2.24-2.59c3.8-3.46,8-6.4,11.41-10,5-5,9.85-10.2,14.35-15.55a140.72,140.72,0,0,0,11.75-15c4.84-7.43,9-15,13.31-22.82,3.11-5.53,5.88-11.06,9-16.59.34-.52,1-1.21,1.55-1.21,4.67-.52,9.34-.86,13.83-1.38a13.35,13.35,0,0,0,3.28-1.38c-.52-.87-.86-1.91-1.38-2.77-.69-1-1.73-1.9-2.42-2.94a16.35,16.35,0,0,1-1.73-2.94c-.52-.86-1-1.55-1.55-2.42A60.64,60.64,0,0,1,495,345.9a3.8,3.8,0,0,1-.35-1.9c3.11-6.74,4.32-14,7.26-20.74,2.94-6.92,3.8-14.7,5.19-22.13,1.21-7.08,1.9-14.17,2.76-21.26.52-5,1.21-9.85,1.39-14.86C512.32,257.06,512,249.63,511.8,242.19ZM80.05,436.64c-1-.52-2.24-.86-2.76-1.56h0c-1.2-1.38-2.24-2.93-3.45-4.32l.52-.52c1.9,2.08,3.8,4.15,5.7,6.4.52-.17,1-.17,1.56-.35.52.87.86,1.91,1.38,2.94C80.57,439.06,79.36,438,80.05,436.64ZM269.48,507a92.05,92.05,0,0,1-9.68,1v-.52c3.29-.34,6.4-.69,9.68-1Zm33.88-3.46h0c-2.42.52-5,.86-7.43,1.21-.87.17-1.9,1-2.25-.52-.34.17-.69.17-1,.35.87,2.59,2.94.52,4.67,1.55-3.8.52-7.43.87-11.06,1.38v-.34l3.28-.52v-.52c-1.73-.17-3.46-.34-5.18-.34-.52,0-1.21.69-1.73.86a8.85,8.85,0,0,1-2.25.35c-2.94.17-5.87.17-8.64.34-.17,0-.52-.17-.69-.17v-.52L305.61,502c.17.35.17.69.34,1A11.64,11.64,0,0,0,303.36,503.53ZM306,501.8c4-.52,7.61-.86,11.41-1.38C309.41,502.66,306.82,503,306,501.8Zm-150.54-349c5.53-7.61,11.23-15.21,16.77-23,1.72-2.25,3.11-4.67,4.84-6.91a10.49,10.49,0,0,1,2.07-1.73l-.17-.35a15.18,15.18,0,0,0,1.72-2.24,34.33,34.33,0,0,0,2.08-4.5,2.46,2.46,0,0,1,.69-.69c2.42,1.21,2.42-1.38,3.28-2.25q2.33-2.61,4.5-5.35a37.72,37.72,0,0,0,2.94-4.15c.17-.52-.35-1.38-.52-2.08h-.52c.52-.34,1-.86,1.55-1.21.18,0,.18,0,.35-.17,1-1.55,2.07-3.11,3.11-4.49a74.65,74.65,0,0,1,6.74-8c-.34.86-.69,1.73-1,2.42.17,0,.17.17.34.17,2.07-2.77,4.32-5.36,6.4-8.12-.18-.18-.35-.35-.52-.35-.87.86-1.56,1.73-2.42,2.59-.18-.17-.35-.34-.52-.34,1.73-2.25,3.46-4.5,5.18-7.09a24,24,0,0,1,1.38,2.59c.7-1.73,1.39-2.94,1.91-4.14-.52.52-1.21,1-1.73,1.55l-.52-.52,3.11-4.66c3.29-4.67,6.57-9.51,9.85-14.18,1.21-1.73,2.77-3.11,3.8-4.84,3.29-6.56,8.48-11.75,12.45-17.8a27.59,27.59,0,0,1,3.11-3.28c.87-1,1.56-.69,2.25.17,4.67,5.88,9.33,11.93,14,17.8,3.46,4.32,6.91,8.47,10.2,13,4,5.54,7.77,11.07,11.75,16.6,4.49,6.39,9,12.79,13.31,19.36,6.57,9.67,12.79,19.35,19.36,29,4.84,7.09,9.68,14,14.34,21.09H322c-8.13-.17-16.42-.87-24.55-.52-11.06.52-22.29,1.73-33.36,2.59-14,1.21-28.17,1.39-42.17,1.39-5,0-10,.69-15,1-6,.35-11.92.69-18,.87-7.09.34-14,.52-21.09.69C163.88,153,159.73,152.84,155.41,152.84Zm197.9,61.53c.17,5.88.35,11.92.35,18h0v1.56c-.18,0-.35.17-.7.17-.69-2.42-1.38-5-2.24-7.43-1.73-5-3.63-10-6.74-14.52-3.46-4.84-6.57-9.85-10-14.86a27.64,27.64,0,0,0-3.11-3.29c-3.63-4-7.26-8.12-11.92-11.06a141.43,141.43,0,0,0-21.61-11.06,50.33,50.33,0,0,1-6.05-3.11h4.15l29.56-.52c6.39-.17,12.61-.17,19-.52a3.4,3.4,0,0,1,3.28,1.9c1.56,2.6,3.11,5.19,4.84,7.78a3.4,3.4,0,0,1,.52,1.38c0,3.81,0,7.78.17,11.58.18,4,.52,7.78.69,11.76C353.48,206.07,353.14,210.22,353.31,214.37ZM167.68,174.44h0c8.12-.34,15.9-.86,23.85-1.21,6.22-.34,12.62-.52,18.84-.86a36.52,36.52,0,0,1,7.61,0,58.35,58.35,0,0,0-7.95,4.49c-3.12,2.07-6.05,4.84-9.17,7.09a52,52,0,0,0-8.46,8c-3.29,4-6.92,7.43-10.37,11.23-2.42,2.77-5.19,5.36-7.26,8.3-2.94,3.8-5.53,7.95-8.3,12.27C167.33,207.28,168.37,191,167.68,174.44ZM280.54,340.71h0a140.57,140.57,0,0,1-16.94,3.63c-4.84.69-9.85.52-14.86.52-4.49,0-8.81-.17-13.31-.52-5-.52-10-1-14.86-3.28-4.15-1.9-8.47-3.63-12.62-5.71s-8.3-4.49-11.41-8.29c-2.24-2.77-5.36-5-8.12-7.43a8.15,8.15,0,0,0,3.63,5c-.86,1-2.07.52-3.8-2.25a9.27,9.27,0,0,1-1.39.69c.52-1.21,1-2.42,1.56-3.45-.69-1.38-1.56-2.94-2.25-4.32q-2.08-3.4-4-6.92c-.35-.52-.35-1-.69-1.55a36.55,36.55,0,0,1-2.42-3.12,72.57,72.57,0,0,0-4.32-6.39c0,.52.17,1,.17,1.73a.64.64,0,0,0-.35.17L171,290.42c-.17,0-.17,0-.34.17L173.73,302c-.17,0-.35.17-.52.17a9.42,9.42,0,0,1-1.38-2.25c-.35-1.38-1.38-1.38-2.25-.86a2.36,2.36,0,0,0-.69,2.07c1.21,2.94,2.59,5.88,4,8.82a23.39,23.39,0,0,0,1.21,2.94c.18.34.7.69.7,1.21a29.17,29.17,0,0,0,2.07,4c1.56,2.07,3.28,4.15,4.84,6.22s2.94,4.33,4.32,6.4c.17.35.69.35.86.52.87,2.59,3.81,4.49,5.88,3.46.52,4,4.84,5.35,6.57,9.16q-2.55-1.05-5-2.25c-.18.17-.18.34-.35.69a67.15,67.15,0,0,1,6.05,3.28,49.75,49.75,0,0,1,5,3.29,15.86,15.86,0,0,0,7.44,3.63,2,2,0,0,0-.35-.69q6.87,3.18,13.65,6.56c-18,.35-37.16.7-57,1,0-3.28-.17-6.39-.17-9.68a31.1,31.1,0,0,0,.18-4c-.52-8-.52-15.9-1.56-23.67a167.49,167.49,0,0,1-.86-24.72c.17-4.49-.18-9.16-.35-13.65,0-6.05,0-11.93.17-18a6.35,6.35,0,0,1,.7-2.42h.51c.18.35,0,.86.35,1,.52.52,1.38,1.38,1.73,1.21,1-.69,2.59-1.39,2.94-2.42a16.89,16.89,0,0,0,1.21-6.4,6.23,6.23,0,0,1,1.38-3.63,15.48,15.48,0,0,0,.86-1.73c-.69-.51-1.38-.86-2.24-1.55.69-1.9.51-4.15,3.11-5.19.34-.17.34-1,.52-1.55.17-1.38.34-2.94.51-4.32a5.21,5.21,0,0,0,.87,1,2.1,2.1,0,0,1,.34-.51c0-.7-.17-2.08,0-2.08,2.08-.34,1.21-2.59,2.25-3.63.17-.17-.17-.69-.17-1s0-.87.17-.87c2.42-.52,2.08-3.11,3.63-4.32.52-.35.69-.86,1.38-1.73,1.38,2.42-1,3.63-1.21,5.36,2.94-1.73,3.8-5.88,2.08-7.09a10.06,10.06,0,0,0,1.9-1.9c1.9-2.07,4-4,5.7-6.05,1.21-1.55,1.9-3.45,3.11-5a9.9,9.9,0,0,1,3.11-2.07c3.12-1.73,6-3.63,8-6.57a9.17,9.17,0,0,1,1.38-1c.52-.34,1.55-.34,1.73-.86.17-.35-.35-1.21-.7-1.73.7-.35,1.39-1,2.77-1.73-.52,1-.69,1.73-1,2.42l.87.86c1.55-1.21,4-2.59,5.53-3.63,0-.17-.87-.86-.87-.86-1,.52-2.59,1.38-4.14,2.07.34-.51.34-.86.51-1a62.84,62.84,0,0,1,7.44-4.32c6-2.77,12.1-5.53,18.14-8.13,1-.52,2.42-.17,3.63-.17a3.9,3.9,0,0,0,1.39-.17c2.76-.87,5.53-1.73,8.29-2.42a14.39,14.39,0,0,1,3.8-.52c5.19.17,10.38.17,15.56.52a26.36,26.36,0,0,1,6.4,1.38,61.09,61.09,0,0,1,7.77,3.28,87.24,87.24,0,0,1,8.47,5.19c5,3.28,9.68,6.91,14.69,9.85a39.05,39.05,0,0,1,11.76,11.41c3.8,5.36,8.12,10.2,9.85,16.76l2.59,11.41c.52,2.08,1.73,4.15,1.21,6.57-.86,4.32-1.55,8.81-2.24,13.14a17.2,17.2,0,0,0-.52,5.18c.34,5.36-1.73,10-3.81,14.86-.69,1.56-1.72,3.12-2.59,4.84a5,5,0,0,0,1.38.7l1.56-3.12c.17,0,.17,0,.35.18-.87,2.42-1.56,5-2.42,7.43-2.08,5.36-4.15,10.89-6.74,16.07-1.39,2.94-3.81,5.36-5.54,8.13-1.72,2.42-3.11,5-4.84,7.26a24.46,24.46,0,0,1-5.18,5.18,131.8,131.8,0,0,1-14.52,9.68A36.21,36.21,0,0,1,280.54,340.71Zm-92.12-9.16h0l-.17.17A4,4,0,0,1,187,331l-4.15-6.22a2,2,0,0,1-.35-1.73Q185.33,327.42,188.42,331.55Zm107.51,23.68A70.07,70.07,0,0,0,316,341.92a18.27,18.27,0,0,1,2.76-2.42c7.26-4.49,12.62-10.71,17.46-17.63,5.53-7.95,9.16-16.94,13.65-25.4a17.1,17.1,0,0,1,1-1.9c-.35,19.7,1.9,39.06,4.49,58.59Zm175.26-5.18h0c-.18.34-.52.69-.7,1a10.92,10.92,0,0,1-.34-1.55c-1,2.76-3.29,1.38-4.84,1.38-9.33.17-18.84.17-28.17.17-9,0-18.15,0-27.14.18-2.94,0-6.05.69-9,.86-7.08.35-14.17.52-21.26.69-.52,0-1-.86-1.9-1.55a11.7,11.7,0,0,1-1,1.55c-.17-.34-.51-.69-.86-1.21a12.65,12.65,0,0,1-.52,1.38h-.52c-.34-2.42-1-4.66-1-7.08,0-5.19.52-10.37.7-15.56.17-2.42,0-4.66,0-6.91.69.52,1.21.86,1.9,1.38a14.1,14.1,0,0,1,1-1.73,2.91,2.91,0,0,1-.7-.52c.35-.17.7-.51.7-.69a7.11,7.11,0,0,0,.51-1.38,17.87,17.87,0,0,0-.52-3.28A.61.61,0,0,0,378,317l1,5.19h.52c-.69-1.21,1.56-2.25-.35-3.63-.17-.17.18-1.21.18-1.73A35.39,35.39,0,0,1,378,313.4a4.37,4.37,0,0,1,1.21-.51,15.48,15.48,0,0,0-1.72-.87c1.72-1.55,1.72-2.42.17-4.15.34-.17.69-.17.69-.34a21,21,0,0,0-.35-4.67c-.34-1.73.52-3.8-2.07-4.84a2.83,2.83,0,0,0,.11.31l-.06.06.09,0a5.32,5.32,0,0,0,.55,1,5.32,5.32,0,0,0-1,.52c-2.24-2.07-.86-4.84-1.38-7.95a27.62,27.62,0,0,1,2.94,1c-.35-1.21-1.21-2.59-1.73-4.15h-.69V277.45c0,.18,1.21.18,1.9.35,0-.17.17-.35.17-.52-.52-.69-1.21-1.38-1.9-2.25l.35-.34c-1.38-1.73-.69-4.15-.69-4.67v-12.1c1.73,1.73-.87,4,1.73,5v-1.72h-.18c-.17-2.6-.17-5.19-.34-7.78h-.35c-.17.34-.17.52-.34.86h-.35c.35-13.65.69-27.31,1-41.31a53.81,53.81,0,0,1,4.84,6.57c4,7.26,9.16,13.48,14,20,4.15,5.71,7.95,11.93,11.75,17.8,4.67,7.09,9.16,14.18,13.83,21.26q5.21,8.05,10.71,15.9c3.29,4.67,6.74,9.16,10.2,13.66,2.94,4,6.05,7.95,9,11.92,3.46,4.84,6.91,9.68,10.37,14.35,1.73,2.42,3.63,4.84,5.53,7.26a20.69,20.69,0,0,0,3.63,3.28,1.31,1.31,0,0,1-.69-.17,17.21,17.21,0,0,0,1.21,1.56C472.05,347.45,472.22,348.49,471.19,350.05ZM480,306.84v-1.21C480,306,480.17,306.49,480,306.84Zm5.88-76.22a8.43,8.43,0,0,1-1.39-1.22c-.17.52,0,1-.34,1.73-.17-.52-1.38-.34-1.38-.86-.18,2.42,1,4.84.86,7.26.52-.35,2.59-.52,3.11-1a1.34,1.34,0,0,0,.69.35c-3.45,2.59-2.59,5.18-1,8.12.35.69,1.39,2.07.35,3.46-.35.34.17,1.38.35,2.24h.51V251l-1.55.52c-.35-.52-2.42-1.56-2.42-2.42v8.81c1.73.52,1.73,2.94,2.42,4.15a5.24,5.24,0,0,0,.69-1.38l.17.17a19.28,19.28,0,0,1-.69,3.11,41.93,41.93,0,0,0-.86,4.5c0,.17.34.52.34.69-1.9,4.32-.86,9.16-1.55,13.65-.52,3.29,0,6.74-.35,10.2a79.09,79.09,0,0,1-1.73,9c-.17.52-.52.69-1.38,1a13.91,13.91,0,0,0-.17-5.36c-.17,0-2.42-1.21-2.59-1.21,0,2.42,1.38,5.7,1.9,8.46-.52-.17-2.6-1.38-2.77-1.38-.34,2.08-.34,4.84-.52,7.09-.17,1.73-1.73,3.28-1.9,5.18,0,1,1.21,1.73,1,3.46h1.38c0-3.46,1.56-6.57,1.56-10.2h.52c.17.35.69.69.51.87-.34,1.9-1,4-.86,5.87,0,1,.86,2.08.52,3.29a16.39,16.39,0,0,0-.69,3.63,9.47,9.47,0,0,1-.35-1.73c-.17,0-1.73-.17-1.9-.17-.17,1,1.21,2.07,1,2.94-.18.17-.35.17-.69.34l-5.71-8.3c-4.49-6.56-9-13.13-13.48-19.87a41.19,41.19,0,0,1-3.11-5.19,244,244,0,0,0-17.8-26.44c-5-6.4-9-13.31-13.66-20-4.32-6.4-8.64-12.62-13-19-1.56-2.08-3.46-4-4.84-6.22-4.49-7.09-8.47-14.35-13-21.44-3.8-5.88-7.95-11.58-11.93-17.28q-2.13-3-4.15-6a2.54,2.54,0,0,1-.34-1.21c-.35-3.8-.69-7.61-.87-11.24,0-3.45.35-6.91.35-10.54v-3.11c0-.86.17-1.56.17-2.42.17-.17.35-.52.52-.69-5,0-10.2-.17-15.21,0-3.28.17-5-1.21-7.26-3.63-6.57-7.43-11.41-15.9-17.11-23.85C331,110,325.48,102.54,320,95.11c-4.49-6-9-11.93-13.48-18-5-6.91-9.85-13.82-15-20.74-6.22-8.29-12.61-16.59-19-24.89-2.94-3.8-6.22-7.43-9.51-11.4,2.25.34,4.32.69,6.4.86l8.3.52c6.22.52,12.44.86,18.66,1.73,5.19.69,10.37,1.73,15.73,2.59a221.74,221.74,0,0,1,33.53,8.64c6.4,2.08,12.62,4.84,18.84,7.43a381.7,381.7,0,0,1,40.44,19.88c4.15,2.25,6.57,5.88,9.68,9.16,4.5,4.67,9,9.33,13.31,14.17,5,5.71,9.68,11.58,14.52,17.46,4.32,5.19,8.82,10.37,13.14,15.56a55,55,0,0,1,3.63,5.18c2.76,4.15,5.87,8.12,8.29,12.62,1.73,3.28,2.77,7.08,4,10.71,1.73,5.36,3.45,10.55,5.18,15.91q1.83,6.06,3.11,12.27c.7,2.76.52,5.7,1.38,8.47,1,3.63,0,7.6,1,11.23.18.35.35.86.52,1.21.69.69,1.21,1.38.18,2.42a1.77,1.77,0,0,0,0,1.38,7.61,7.61,0,0,0,.86-1.21c0,.35.17.52.17.69a8.51,8.51,0,0,0,0,2.08,3.82,3.82,0,0,0,.52,1.21,14.09,14.09,0,0,1,1.38-1c1.56,5.88,1.73,11.75,1.73,17.8,0,5.71,1,11.41-1.38,16.94C486.57,234.07,485.36,232.34,485.88,230.62Z"/><polygon points="485.88 230.62 485.88 230.62 485.88 230.62 485.88 230.62"/><path d="M71.11,241.53c1-1.56,2.08-3.28,3.12-4.84a2.31,2.31,0,0,1-.7-.52c-1,1.56-3.63,4.32-4.66,5.88C69,242.22,70.94,241.36,71.11,241.53Z"/><path d="M402.62,468.12c-1.9,1.21-4,2.42-5.88,3.63.18.18.18.35.35.52a16.28,16.28,0,0,0,6.22-3.11h0C403.14,468.82,402.79,468.47,402.62,468.12Z"/><path d="M69.73,250.35c-.69.51-1.21,1.2-1.9,1.72l-3.11,2.08c-1.73,1.55-3.46,2.94-5.36,4.49-1.21,1.9-2.42,3.63-3.8,5.88,2.07-.52,2.59.34,2.42,2.07,2.42.35,2.59-1.55,3.28-2.94.18-.34.35-1,.69-1.21,1.56-1.38,3.29-2.59,5-4a2.37,2.37,0,0,0,.34-1.56c0-.17-.86-.17-1.38-.34,1.55-1.73,3.8-4.67,5.36-6.57.86-.52,1.73-1.21,1.73-1.73-.15-1.61.7-2.23,1.8-2.8-.79,3.77-3.11,7-5.43,7.64a2.88,2.88,0,0,0,1.9.52c.52-.17.86-1,1.21-1.56l4.66-6.74,1.56-2.59-.69-.69c-.69,1.21-1.38,2.25-2.08,3.46l-.6-.31.08,0a1.88,1.88,0,0,1-.86-1.21h0a7.12,7.12,0,0,1,.86-1.56,3.59,3.59,0,0,0,.87-.17c.69-1.21.69-2.07,1.38-3.11-.17-.17-.34-.17-.52-.35-1,.7-2.07,1.56-3.11,2.25a1,1,0,0,1,.35.87c-1.38-.18-1.9.51-2.59,2.42-.18.51-1,.69-1.91,1.38-.17.34-.34,1.21-.69,2.07l.18.18a2.56,2.56,0,0,1-.87.51c-1,1-2.25,1.91-3.28,2.94a4.88,4.88,0,0,0-.35,1.56c1.21-1.21,3.29-3.46,4.84-4.84l.17.17c.7-1,1.21-2.07,1.91-3.11.17.17.17.35.34.52-.52,1.38-1,2.94-1.55,4.32C70.25,250.17,69.73,250.52,69.73,250.35Z"/><path d="M86.84,228.39c-.17-.17-1.55-.51-1.73-.69-2.07,2.42-4,4.84-5.87,7.26h0c.34.18.86,1.39,1.21,1.73C82.35,234.1,84.94,230.81,86.84,228.39Z"/><path d="M384.82,476.25h0c.69,1.55,2.07,1.73,4.32.17a27.41,27.41,0,0,1-4-.35C385,476.07,385,476.25,384.82,476.25Z"/><path d="M27.56,310a6.11,6.11,0,0,0-1.56.7c1.39,2.93,2.77,6.05,4.15,9a14.05,14.05,0,0,0,1.56-.69C30.32,316,29.46,312.74,27.56,310Z"/><path d="M20.47,317.92c-.17.18.52,1.21.69,1.39h3.63c0-.87-.17-1.56-.17-2.42H24.1c0,.69-.86.52-.86,1.21-1,0-1.9-.18-2.77-.18Z"/><path d="M17.71,308.42c0,.52.86,1,1.38,1.55,0-.17.17-.34.35-.51-.35-1.21-.52-2.25-.87-3.46C18.05,306.86,17.53,307.73,17.71,308.42Z"/><path d="M25.48,304.27c-.69-1.73-1.38-3.63-2.07-5.36a4.23,4.23,0,0,0-1.55.69c.69,1.73,1.55,3.63,2.24,5.36A5.24,5.24,0,0,1,25.48,304.27Z"/><path d="M245.68,188c.87-.17,2.77-1.56,3.8-1.73a5.92,5.92,0,0,1,1.73.35,12.6,12.6,0,0,1,.18-2.42l-5,2.24C246.37,186.57,245.51,188,245.68,188Z"/><path d="M408.15,464.15c-.35.69-.69,1.21-1,1.9.18,0,.35.17.52.35a41.71,41.71,0,0,1,3.8-3.12,28.46,28.46,0,0,0-3.28.87Z"/><path d="M376,333c-.17,2.08-.34,3.63-.34,5.19,0,.34.34,1,.51,1,.35.18,1-.17,1.39-.34a1.32,1.32,0,0,0,.34-.69c-.52-.35-1-.52-1.55-.87C379.63,335.55,376.35,334.69,376,333Z"/><path d="M195.9,101.88c1.21-1.73,2.08-3.11,3.12-4.5l-.35-.34c-1,.69-1.9,1.21-2.94,1.9-.17.17-.34.17-.17.17C195.73,100,195.73,100.67,195.9,101.88Z"/></svg>
