<svg xmlns="http://www.w3.org/2000/svg" viewBox="0 0 2500 2500"><path class="a" d="M2273.37 0H226.63C101.46 0 0 101.46 0 226.63v2046.74C0 2398.54 101.46 2500 226.63 2500h2046.74c125.17 0 226.63-101.46 226.63-226.63V226.63C2500 101.46 2398.54 0 2273.37 0zM835.5 485.62c83.1 0 152.72 65.13 152.72 150.44S918.6 786.57 835.5 786.57s-152.71-65.14-152.71-150.51 69.6-150.44 152.71-150.44zm1021.73 1439.56c-155 0-229.07-92-229.07-217.84a398.35 398.35 0 0 1 15.71-112.29L1718 1330c9-29.21 11.23-56.13 11.23-80.85 0-85.31-51.65-137-134.75-137-105.56 0-175.18 75.77-211.12 221.75l-143.76 576.6H988.09l45.14-181.18C959.3 1850.77 856.61 1926 730 1926c-152.72 0-224.59-88-224.59-220.51 0-33.63 4.5-74.86 13.48-113l114.52-467.91H456l53.9-198.87h426.68l-168.46 668.15c-11.23 42.7-15.72 78.12-15.72 102.78 0 42.73 21 55.23 53.93 62.65 20 4.48 179.63 1.34 266.51-191.8l110.65-443h-179.68l53.9-198.87h384l-49.4 225.79c67.37-125.8 202.13-245.32 334.63-245.32 141.49 0 258.28 100.8 258.28 293.95 0 49.39-6.74 103.15-24.7 163.78L1888.66 1622c-6.72 27-11.23 49.44-11.23 69.66 0 44.89 18 67.33 51.66 67.33s76.37-24.75 125.78-161.68l98.81 38.15c-58.4 204.41-163.94 289.72-296.45 289.72z"/></svg>
