<svg xmlns="http://www.w3.org/2000/svg" viewBox="0 0 24 24"><title>loader</title><path d="M12,7a1,1,0,0,1-1-1V2a1,1,0,0,1,2,0V6A1,1,0,0,1,12,7Z"/><path d="M12,23a1,1,0,0,1-1-1V18a1,1,0,0,1,2,0v4A1,1,0,0,1,12,23Z"/><path d="M7.76,8.76a1,1,0,0,1-.71-.29L4.22,5.64A1,1,0,0,1,5.64,4.22L8.47,7.05a1,1,0,0,1-.71,1.71Z"/><path d="M19.07,20.07a1,1,0,0,1-.71-.29l-2.83-2.83a1,1,0,0,1,1.41-1.41l2.83,2.83a1,1,0,0,1-.71,1.71Z"/><path d="M6,13H2a1,1,0,0,1,0-2H6a1,1,0,0,1,0,2Z"/><path d="M22,13H18a1,1,0,0,1,0-2h4a1,1,0,0,1,0,2Z"/><path d="M4.93,20.07a1,1,0,0,1-.71-1.71l2.83-2.83a1,1,0,0,1,1.41,1.41L5.64,19.78A1,1,0,0,1,4.93,20.07Z"/><path d="M16.24,8.76a1,1,0,0,1-.71-1.71l2.83-2.83a1,1,0,0,1,1.41,1.41L16.95,8.47A1,1,0,0,1,16.24,8.76Z"/></svg>