<svg xmlns="http://www.w3.org/2000/svg" viewBox="0 0 255.93 246.29"><title>reactivex</title><path d="M255.06,108c-7.16,17.05-16.62,30.15-28.44,39.15,25.12-39.15,20.81-59.39,2.21-81.64,13.3,36.57-3.9,77.16-41.37,106,15.18,1.65,29.59-2,42.94-12.88-20.17,22.5-45.4,33.82-74.34,36.9,13.82,11.74,27.15,17,39.9,14.77a87.67,87.67,0,0,1-26.25,3.38v0c-.36-.07-.5,0-.54,0a75.16,75.16,0,0,1-11.75-1.37,113.91,113.91,0,0,1-21.34-7.42c-12.21-6.09-24.63-15.38-37.88-28.12l-.14-.14q-1.65-1.59-3.32-3.25c-1.89,9.68,8.33,24.76,18.87,34.39-61.11-26.5-66.49-109,8-129.36l.11,0c44.33,25.93,100.09,24.25,102.61,7.48,6.2-20.09-28.26-61.5-79.79-72.31a123.16,123.16,0,0,0-27.39-2.32l.68-.08C106.84-.56,91.85-.65,85,.78,72.77,4.66,73.15,12.54,59.34,22.72c-13.73,7.84-20.63,1.84-30.63,10s-3,26.6-7.21,30.2c-4.15,7.2-17,13.62-19.39,22.72-1.94,11.63,5.26,19.94,5,29.92.83,8.31-8.28,13-7,19.75,3.92,11,11.47,17.62,15,20.68a6.13,6.13,0,0,1,1,1,73.85,73.85,0,0,0,3.55,7.72c.7,2.63,1.51,5.25,2.45,7.84,21,45.54,77,80.6,138.33,72.89,29.8-3.65,74.3-24.2,92.48-72.89C240.16,184,217.26,194,207,194.77,241.63,177.48,260.3,148.1,255.06,108ZM158.28,50.05A5.27,5.27,0,1,1,153,55.31,5.27,5.27,0,0,1,158.28,50.05Z" transform="translate(0 -0.15)"/></svg>
