<?xml version="1.0" encoding="utf-8"?>
<!-- Generator: Adobe Illustrator 21.1.0, SVG Export Plug-In . SVG Version: 6.00 Build 0)  -->
<svg version="1.1" id="Layer_1" xmlns="http://www.w3.org/2000/svg" xmlns:xlink="http://www.w3.org/1999/xlink" x="0px" y="0px"
	 viewBox="0 0 24 24" style="enable-background:new 0 0 24 24;" xml:space="preserve">
<g>
	<path d="M19,2H5C3.35,2,2,3.35,2,5v14c0,1.65,1.35,3,3,3h14c1.65,0,3-1.35,3-3V5C22,3.35,20.65,2,19,2z M4,5c0-0.55,0.45-1,1-1h14
		c0.55,0,1,0.45,1,1v7.59l-3.29-3.29c-0.39-0.39-1.02-0.39-1.41,0L4.66,19.93C4.28,19.79,4,19.43,4,19V5z M19,20H7.41L16,11.41l4,4
		V19C20,19.55,19.55,20,19,20z"/>
	<path d="M8.5,11C9.88,11,11,9.88,11,8.5S9.88,6,8.5,6S6,7.12,6,8.5S7.12,11,8.5,11z M8.5,8C8.78,8,9,8.22,9,8.5S8.78,9,8.5,9
		S8,8.78,8,8.5S8.22,8,8.5,8z"/>
</g>
</svg>
