<?xml version="1.0" encoding="utf-8"?>
<!-- Generator: Adobe Illustrator 21.1.0, SVG Export Plug-In . SVG Version: 6.00 Build 0)  -->
<svg version="1.1" id="Layer_1" xmlns="http://www.w3.org/2000/svg" xmlns:xlink="http://www.w3.org/1999/xlink" x="0px" y="0px"
	 viewBox="0 0 24 24" style="enable-background:new 0 0 24 24;" xml:space="preserve">
<path d="M13.41,12l5.29-5.29c0.39-0.39,0.39-1.02,0-1.41s-1.02-0.39-1.41,0L12,10.59L6.71,5.29c-0.39-0.39-1.02-0.39-1.41,0
	s-0.39,1.02,0,1.41L10.59,12l-5.29,5.29c-0.39,0.39-0.39,1.02,0,1.41C5.49,18.9,5.74,19,6,19s0.51-0.1,0.71-0.29L12,13.41l5.29,5.29
	C17.49,18.9,17.74,19,18,19s0.51-0.1,0.71-0.29c0.39-0.39,0.39-1.02,0-1.41L13.41,12z"/>
</svg>
