<svg xmlns="http://www.w3.org/2000/svg" viewBox="0 0 107 28"><path d="M62.9 12h2.8v10h-2.8v-1.3c-1 1.5-2.3 1.6-3.1 1.6-3.1 0-5.1-2.4-5.1-5.3 0-3 2-5.3 4.9-5.3.8 0 2.3.1 3.2 1.6V12h.1zm-5.2 5c0 1.6 1.1 2.8 2.8 2.8 1.6 0 2.8-1.2 2.8-2.8 0-1.6-1.1-2.8-2.8-2.8-1.6 0-2.8 1.2-2.8 2.8zm13.5-2.6V22h-2.8v-7.6h-1.1V12h1.1V8.6h2.8V12h1.9v2.4h-1.9zm8.5 0c-.7-.6-1.3-.7-1.6-.7-.7 0-1.1.3-1.1.8 0 .3.1.6.9.9l.7.2c.8.3 2 .6 2.5 1.4.3.4.5 1 .5 1.7 0 .9-.3 1.8-1.1 2.5s-1.8 1.1-3 1.1c-2.1 0-3.2-1-3.9-1.7l1.5-1.7c.6.6 1.4 1.2 2.2 1.2.8 0 1.4-.4 1.4-1.1 0-.6-.5-.9-.9-1l-.6-.2c-.7-.3-1.5-.6-2.1-1.2-.5-.5-.8-1.1-.8-1.9 0-1 .5-1.8 1-2.3.8-.6 1.8-.7 2.6-.7.7 0 1.9.1 3.2 1.1l-1.4 1.6zm6.1-1.1c1-1.4 2.4-1.6 3.2-1.6 2.9 0 4.9 2.3 4.9 5.3s-2 5.3-5 5.3c-.6 0-2.1-.1-3.2-1.6V22H83V5.2h2.8v8.1zm-.3 3.7c0 1.6 1.1 2.8 2.8 2.8 1.6 0 2.8-1.2 2.8-2.8 0-1.6-1.1-2.8-2.8-2.8-1.7 0-2.8 1.2-2.8 2.8zm13 3.5L93.7 12H97l3.1 5.7 2.8-5.7h3.2l-8 15.3h-3.2l3.6-6.8zM54 13.7h-7v2.8h3.7c-.6 1.9-2 3.2-4.6 3.2-2.9 0-5-2.4-5-5.3S43.1 9 46 9c1.6 0 3.2.8 4.2 2.1l2.3-1.5C51 7.5 48.6 6.3 46 6.3c-4.4 0-8 3.6-8 8.1s3.4 8.1 8 8.1 8-3.6 8-8.1c.1-.3 0-.5 0-.7zM14 0c7.7 0 14 6.3 14 14s-6.3 14-14 14S0 21.7 0 14 6.3 0 14 0zM3 14.2c0 2.7 1.1 5.5 3.2 7.6 2.013 2.012 4.668 3.015 7.35 3.183l.35.017zM14 3C8.898 3 4.566 6.562 3.366 11.324L3.3 11.6l13.1 13.1.276-.066c4.67-1.177 8.187-5.367 8.32-10.34L25 14h-7v2h4.8l-.072.289c-.745 2.775-2.78 5.085-5.45 6.11L17 22.5 5.5 11l.101-.26C6.965 7.376 10.197 5 14 5c2.897 0 5.513 1.398 7.22 3.565l.18.235 1.5-1.3-.191-.25C20.699 4.69 17.584 3 14 3z"/>
</svg>
