<svg xmlns="http://www.w3.org/2000/svg" viewBox="0 0 315 346"><path d="M314.1 0l-43 126.8c19.2 5 33.5 22.5 33.5 43.3 0 8.7-2.4 16.8-6.7 23.7 6.4 12.6 8.9 27 6.4 41.3-3.3 18.6-14.7 34.8-31.4 44.5-12.768 7.41-26.811 10.038-40.635 12.082l-9.198 1.331c-6.056.887-11.86 1.806-17.467 3.187-16.71 4.11-33.66 12.134-50.208 20.289l-11.007 5.444C120.181 333.883 95.265 345.4 70.7 345.4c-15.3 0-29.5-4.5-42.4-13.4-22.9-15.9-32.4-44-26.6-79 2.9-17.5 10.5-33.1 17.2-46.9.7-1.5 1.4-2.9 2.1-4.3-8-8-13-19.2-13-31.4 0-24.7 20.1-44.8 44.8-44.8 24.6 0 44.7 20 44.7 44.7 0 20.1-13.3 37.2-31.6 42.8-4.7 12.8.5 27.1 12.5 35.2 13.3-5.3 25.6-13.3 36.7-23.7 5.9-5.6 11.1-11.5 15.6-17.9-11.4-8.2-18.9-21.5-18.9-36.5 0-20.196 13.427-37.256 31.743-42.834l.557-.166L101 0h213.1zm-97.5 181.2h-16.8l-.154.575c-5.196 18.91-22.554 32.925-43.146 32.925-2.3 0-4.6-.1-6.9-.5-5.8 8.9-12.7 17.1-20.8 24.7-14.04 13.255-29.912 23.232-47.047 29.458l-.953.342-4.1 1.5-3.8-2-.627-.327C51.685 256.963 41.138 235.288 44.9 214.3c-2.4-.4-4.7-1-6.9-1.8-.3.6-.544 1.144-.816 1.716l-1.995 4.092-.438.903c-5.694 11.76-11.219 24.02-13.351 36.989l-.154.951-.074.477c-2.417 15.859-2.816 43.125 18.528 57.872 9.6 6.7 19.7 9.9 31 9.9 20.467 0 42.446-10.32 65.686-21.812l9.077-4.493 1.22-.602c17.492-8.623 35.484-17.124 54.117-21.693 6.76-1.647 13.745-2.768 20.5-3.753l5.63-.808.84-.121c12.858-1.866 25.002-4.022 35.03-9.818 11.6-6.7 19.5-17.9 21.7-30.7 1.4-7.8.6-15.6-2-23.1-6.6 3.9-14.3 6.2-22.6 6.2-20.592 0-37.95-13.917-43.146-32.923l-.154-.577zm44.93-36.4H260l-.28.007c-.366.017-.697.062-1.02.083l-.3.01h-.5l-.3.016c-.3.028-.6.084-.9.084-.08.08-.224.096-.33.1h-.07l-1.5.3h-.1l-.36.075c-.346.075-.665.15-1.04.225-.1 0-.3.1-.4.1-.4.1-.8.3-1.2.4-.1 0-.2.1-.3.1-.24.12-.516.24-.806.36l-1.188.48-.284.12c-.186.08-.362.16-.522.24-.1 0-.2.1-.3.1-.4.2-.8.5-1.2.7 0 .1-.1.1-.1.1l-1.074.72-.524.36-.51.36-.492.36-.1.1-.483.38c-1.114.897-2.142 1.87-3.017 2.92-1 1.2-2 2.6-2.8 4-2.1 3.7-3.3 8-3.3 12.5 0 13.9 11.3 25.2 25.2 25.2 13.9 0 25.2-11.3 25.2-25.2 0-12.2-8.7-22.4-20.1-24.8-.64-.16-1.28-.256-1.92-.34l-.48-.06h-.2l-.185-.04a3.747 3.747 0 00-.685-.06zm-209.63.1c-13.9 0-25.2 11.3-25.2 25.2 0 13.9 11.3 25.2 25.2 25.2 13.9 0 25.2-11.3 25.2-25.2 0-13.9-11.3-25.2-25.2-25.2zm106.7.1h-3.9l-.216.01c-.208.016-.396.053-.6.074l-.284.016h-.4l-.3.06c-.2.03-.4.05-.6.08l-.3.06h-.3l-.36.075-.68.15-.36.075-.37.097c-10.688 2.892-18.549 12.512-18.63 23.91V170l.003.416c.223 13.709 11.436 24.784 25.197 24.784 13.9 0 25.2-11.3 25.2-25.2 0-4.924-1.398-9.475-3.835-13.384l-.265-.416-.309-.483c-.635-.956-1.369-1.856-2.116-2.7l-.375-.417-.1-.1-.55-.5a47.182 47.182 0 00-2.258-1.942l-.592-.458-.1-.1-.284-.166c-.272-.178-.516-.384-.816-.534-.1 0-.1-.1-.2-.1-.3-.15-.6-.356-.9-.534l-.3-.166h-.1l-.2-.142a5.245 5.245 0 00-.858-.458l-.242-.1h-.1l-.3-.134c-.3-.122-.6-.216-.9-.366-.1 0-.2-.1-.3-.1-.3-.2-.7-.3-1-.4-.2 0-.3-.1-.4-.1-.32-.16-.64-.256-.96-.34l-.24-.06h-.1l-.251-.06c-.349-.08-.749-.16-1.149-.24-.2-.1-.3-.1-.4-.1-.4-.1-.7-.1-1.1-.2-.2-.1-.3-.1-.5-.1-.24 0-.48-.064-.771-.09l-.229-.01zm49-49.4l-20.7 41.8.431.399c6.43 6.025 11.007 14.044 12.944 23.002l.125.599H216l.127-.612c1.835-8.543 6.109-16.071 11.953-22.063l.42-.425-20.9-42.7zM286.2 20H128.9l35.9 106.2.685.13c1.142.216 2.276.448 3.366.767l.649.203 38.1-77 38 77.5.771-.256c1.029-.339 2.058-.662 3.086-.904l.643-.14L286.2 20z"/></svg>
