<svg xmlns="http://www.w3.org/2000/svg" viewBox="0 0 20.53 20.53"><title>pinterest</title><path class="a" d="M10.27 0a10.27 10.27 0 0 0-4.13 19.67 9 9 0 0 1 .18-2.36l1.32-5.59a3.94 3.94 0 0 1-.33-1.62c0-1.52.88-2.66 2-2.66A1.37 1.37 0 0 1 10.68 9a22.1 22.1 0 0 1-.91 3.64 1.59 1.59 0 0 0 1.62 2c1.94 0 3.25-2.5 3.25-5.46 0-2.25-1.52-3.93-4.27-3.93a4.86 4.86 0 0 0-5.05 4.92 3 3 0 0 0 .68 2 .5.5 0 0 1 .15.57l-.21.82a.35.35 0 0 1-.51.26C4 13.2 3.32 11.63 3.32 9.87c0-2.92 2.46-6.41 7.34-6.41 3.92 0 6.5 2.84 6.5 5.88 0 4-2.24 7-5.54 7a2.94 2.94 0 0 1-2.51-1.28s-.6 2.37-.72 2.82a8.59 8.59 0 0 1-1 2.2A10.27 10.27 0 1 0 10.27 0z"/></svg>