<svg xmlns="http://www.w3.org/2000/svg" viewBox="0 0 347 86"><path d="M122.365 53.564l-.066-.88H115l.04.99C115.49 64.698 122.872 72 136.003 72c12.524 0 21.04-6.55 21.04-16.464 0-5.36-1.848-9.154-5.369-11.745-2.708-1.993-5.946-3.116-11.316-4.288-.359-.079-.732-.159-1.18-.254l-1.17-.247c-9.752-2.058-12.845-3.845-12.845-9.17 0-5.505 4.472-9.01 11.973-9.01 7.299 0 11.911 4.486 12.126 11.55l.028.92h7.246l-.023-.972c-.252-11.01-7.59-18.419-19.452-18.419-11.626 0-19.302 7.042-19.302 16.16 0 5.345 1.846 9.068 5.372 11.555 2.686 1.895 5.798 2.9 11.288 4.015a249.839 249.839 0 001.684.338c5.194 1.034 7.486 1.673 9.577 2.896 2.595 1.52 3.883 3.69 3.883 7.051 0 5.837-4.874 9.164-13.409 9.164-8.17 0-13.24-4.125-13.79-11.516zm49.975-40.613V12h-7.252v58.935h7.252v-11.12l7.634-7.484 13.633 18.226.284.378H202.912l-1.15-1.525-16.65-22.076 15.355-15.383 1.621-1.624h-9.857l-.277.28-19.614 19.885V12.951zm67.764 40.19h.887l.055-.892a48.74 48.74 0 00.067-1.443c.007-.247.01-.471.01-.67 0-11.93-7.85-20.722-19.452-20.722-11.58 0-19.83 9.358-19.83 21.18 0 12.163 7.876 21.254 19.906 21.254 9.096 0 16.123-5.433 18.655-13.674l.378-1.231h-7.538l-.223.633c-1.59 4.51-5.894 7.504-11.197 7.504-6.932 0-11.765-4.793-12.636-11.94h30.918zm-30.698-6.312c1.224-6.4 5.9-10.646 12.265-10.646 6.56 0 11.089 4.107 12.08 10.646h-24.345zm55.515-10.038h.944V30.327H257.026V19.301h-7.252v11.026h-7.328v6.463h7.328v22.777c0 7.471 3.85 11.52 10.916 11.52 1.233 0 2.297-.074 3.19-.199a9.483 9.483 0 001.142-.215l.692-.194V63.71l-1.145.25a19.128 19.128 0 01-1.013.179 15.818 15.818 0 01-2.186.18c-3.096 0-4.344-1.463-4.344-5.133V36.791h7.895zm22.55 35.057c10.038 0 17.126-6.394 18.906-15.443l.223-1.135h-7.315l-.187.706c-1.524 5.775-5.663 9.104-11.627 9.104-7.444 0-12.579-5.91-12.579-14.41 0-8.567 5.127-14.487 12.579-14.487 5.964 0 10.103 3.329 11.627 9.103l.187.706h7.315l-.223-1.135c-1.78-9.048-8.868-15.443-18.906-15.443-11.661 0-19.906 9.425-19.906 21.255 0 11.766 8.256 21.179 19.906 21.179zm32.484-58.897V12h-7.252v58.935h7.252v-23.84c0-6.974 4.217-11.065 10.614-11.065 6.11 0 9.179 3.56 9.179 10.305V70.935H347V45.27c0-9.526-5.86-15.856-15.524-15.856-4.973 0-8.97 1.834-11.521 4.466V12.95zM48 86l-.153-.176.028-.051L48 86zM0 31h17.775l30.092 54.758-.028.058L0 31zm74.258 0L47.876 85.739 21.739 31h52.519zM21 3l-3.339 25.283L0 31 21 3zm27-3l24.203 28H23.797L48 0zm27 3v23.55L48 0l27 3zm21 28l-17.661-2.717L75 3l21 28zM48 86l-.116-.243L77.975 31H96L48 86zM21 3l27-3-27 26.55V3z"/></svg>
