<svg xmlns="http://www.w3.org/2000/svg" viewBox="0 0 229.62 225.02"><title>sublime</title><path d="M229.6,145.82c0-42.28.06-84.56-.14-126.84,0-3.46.19-7.14-1.56-10.27-2.11-4.39-6.55-7.09-11-8.51A88.9,88.9,0,0,0,207.76,0Q112.21,0,16.67,0C11.63.11,6.81,3,3.48,6.64,0,10.46-.09,15.86.1,20.72-.05,78.42,0,136.13,0,193.84c.2,6-.35,12.08.38,18.08C2,219.29,9.07,225.14,16.66,225q99.11,0,198.21,0c7.15-.06,13.3-6.07,14.4-13C229.89,190,229.47,167.89,229.6,145.82Zm-80.78,7.31c-5,6.85-12.79,11.31-20.94,13.38a58.7,58.7,0,0,1-53.09-13.7c0-1.15,1.29-1.87,1.86-2.79,4-4.66,7.87-9.44,11.83-14.13,7.86,6.56,17.74,11.63,28.21,11.22,4.89-.27,11-1.85,12.64-7.12,1.87-4.49-.9-9.47-5.06-11.43-8.83-4.48-18.24-7.7-27.19-11.93-6.42-3.16-12.14-8.13-15.29-14.65-5.07-10.4-3.47-23.82,4.39-32.43,9.2-10.45,24.18-14.08,37.6-12.16A50.37,50.37,0,0,1,151.8,71c-4.19,5.14-8.35,10.28-12.47,15.47-7.68-6.16-17.82-10.37-27.75-8-4.47.84-8.52,4.81-8.14,9.58.43,4.26,4.31,6.82,7.88,8.42,8.12,3.65,16.51,6.66,24.68,10.21,6.75,3.07,13.07,8,16.14,14.88C156.62,131.73,155.48,144.25,148.82,153.13Z"/></svg>
