<svg xmlns="http://www.w3.org/2000/svg" style="position:absolute; width: 0; height: 0;"><symbol viewBox="0 0 10.8 19.51" id="icon-chevron-left"><path d="M9.63 19.5L0 9.88 9.88 0l.92.92-8.96 8.96 8.71 8.71-.92.91z"></path></symbol><symbol viewBox="0 0 10.8 19.51" id="icon-chevron-right"><path d="M.92 19.5L0 18.59l8.96-8.96L.25.92 1.17 0l9.63 9.63L.92 19.5z"></path></symbol><symbol viewBox="0 0 23 23" id="icon-close"><path class="a" d="M23 .72L22.28 0 11.5 10.78.72 0 0 .72 10.78 11.5 0 22.28l.72.72L11.5 12.22 22.28 23l.72-.72L12.22 11.5 23 .72z"></path></symbol><symbol viewBox="0 0 266.89 266.89" id="icon-facebook"><path class="cls-1" data-name="White" d="M252.16 0H14.73A14.73 14.73 0 0 0 0 14.73v237.43a14.73 14.73 0 0 0 14.73 14.73h127.83V163.54h-34.78v-40.28h34.78V93.55c0-34.47 21.05-53.24 51.81-53.24a285.37 285.37 0 0 1 31.08 1.59v36h-21.33c-16.72 0-20 7.95-20 19.61v25.72H224l-5.19 40.28h-34.66v103.38h68a14.73 14.73 0 0 0 14.73-14.73V14.73A14.73 14.73 0 0 0 252.16 0z"></path></symbol><symbol viewBox="0 0 22.15 22.15" id="icon-instagram"><path class="a" d="M11.07 2c3 0 3.31 0 4.47.06a6.13 6.13 0 0 1 2.06.38 3.43 3.43 0 0 1 1.27.83 3.43 3.43 0 0 1 .83 1.27 6.13 6.13 0 0 1 .38 2.06c.05 1.17.06 1.52.06 4.47s0 3.31-.06 4.47a6.13 6.13 0 0 1-.38 2.06 3.67 3.67 0 0 1-2.1 2.1 6.13 6.13 0 0 1-2.06.38c-1.17.05-1.52.06-4.47.06s-3.31 0-4.47-.06a6.13 6.13 0 0 1-2.06-.38 3.43 3.43 0 0 1-1.27-.83 3.43 3.43 0 0 1-.83-1.27 6.13 6.13 0 0 1-.38-2.06C2 14.38 2 14 2 11.07s0-3.31.06-4.47a6.13 6.13 0 0 1 .38-2.06 3.43 3.43 0 0 1 .83-1.27 3.43 3.43 0 0 1 1.27-.83 6.13 6.13 0 0 1 2.06-.38C7.77 2 8.12 2 11.07 2m0-2c-3 0-3.38 0-4.57.07a8.13 8.13 0 0 0-2.68.51 5.43 5.43 0 0 0-2 1.28 5.43 5.43 0 0 0-1.28 2 8.13 8.13 0 0 0-.47 2.65C0 7.69 0 8.07 0 11.07s0 3.38.07 4.57a8.13 8.13 0 0 0 .51 2.69 5.43 5.43 0 0 0 1.28 2 5.43 5.43 0 0 0 2 1.28 8.13 8.13 0 0 0 2.69.51c1.18.05 1.56.07 4.57.07s3.38 0 4.57-.07a8.13 8.13 0 0 0 2.69-.51 5.66 5.66 0 0 0 3.24-3.24 8.13 8.13 0 0 0 .51-2.69c.05-1.18.07-1.56.07-4.57s0-3.38-.07-4.57a8.13 8.13 0 0 0-.51-2.69 5.43 5.43 0 0 0-1.28-2 5.43 5.43 0 0 0-2-1.28 8.13 8.13 0 0 0-2.7-.5C14.46 0 14.08 0 11.07 0"></path><path class="a" d="M11.07 5.39a5.69 5.69 0 1 0 5.69 5.69 5.69 5.69 0 0 0-5.69-5.69m0 9.38a3.69 3.69 0 1 1 3.69-3.69 3.69 3.69 0 0 1-3.69 3.69m7.24-9.61A1.33 1.33 0 1 1 17 3.83a1.33 1.33 0 0 1 1.33 1.33"></path></symbol><symbol viewBox="0 0 75.77 76.25" id="icon-linkedin"><path d="M23 63.83V29.4H11.52v34.43zM17.25 24.7c4 0 6.47-2.64 6.47-5.95s-2.48-5.95-6.4-5.95-6.47 2.57-6.47 5.95 2.48 5.95 6.32 5.95h.07zM29.3 63.83h11.44V44.6a7.84 7.84 0 0 1 .38-2.79A6.26 6.26 0 0 1 47 37.62c4.14 0 5.8 3.16 5.8 7.79v18.42h11.43V44.09c0-10.58-5.65-15.5-13.18-15.5a11.4 11.4 0 0 0-10.39 5.8h.08v-5H29.3c.15 3.23 0 34.43 0 34.43z"></path></symbol><symbol viewBox="0 0 11.05 16.33" id="icon-location-outline"><path class="a" d="M5.53 3a2.25 2.25 0 1 0 2.24 2.2A2.25 2.25 0 0 0 5.53 3zm0 3.74A1.5 1.5 0 1 1 7 5.2a1.5 1.5 0 0 1-1.47 1.5z"></path><path class="a" d="M5.53 0A5.53 5.53 0 0 0 0 5.53c0 2.93 5 10.06 5.22 10.36l.31.43.31-.44C6 15.59 11 8.45 11 5.53A5.53 5.53 0 0 0 5.53 0zm0 15C4.43 13.4.75 7.83.75 5.53a4.77 4.77 0 1 1 9.55 0c0 2.3-3.68 7.87-4.77 9.47z"></path></symbol><symbol viewBox="0 0 27 1" id="icon-minus"><path d="M0 1V0h27v1z"></path></symbol><symbol viewBox="0 0 20.53 20.53" id="icon-pinterest"><path class="a" d="M10.27 0a10.27 10.27 0 0 0-4.13 19.67 9 9 0 0 1 .18-2.36l1.32-5.59a3.94 3.94 0 0 1-.33-1.62c0-1.52.88-2.66 2-2.66A1.37 1.37 0 0 1 10.68 9a22.1 22.1 0 0 1-.91 3.64 1.59 1.59 0 0 0 1.62 2c1.94 0 3.25-2.5 3.25-5.46 0-2.25-1.52-3.93-4.27-3.93a4.86 4.86 0 0 0-5.05 4.92 3 3 0 0 0 .68 2 .5.5 0 0 1 .15.57l-.21.82a.35.35 0 0 1-.51.26C4 13.2 3.32 11.63 3.32 9.87c0-2.92 2.46-6.41 7.34-6.41 3.92 0 6.5 2.84 6.5 5.88 0 4-2.24 7-5.54 7a2.94 2.94 0 0 1-2.51-1.28s-.6 2.37-.72 2.82a8.59 8.59 0 0 1-1 2.2A10.27 10.27 0 1 0 10.27 0z"></path></symbol><symbol viewBox="0 0 27 27" id="icon-plus"><path d="M27 14H14v13h-1V14H0v-1h13V0h1v13h13v1z"></path></symbol><symbol viewBox="0 0 24 24" id="icon-share"><path d="M20 16a4 4 0 0 0-2.93 1.3l-7.3-3.87A4.91 4.91 0 0 0 10 12a5 5 0 0 0-.21-1.36v-.06L17 6.7A4 4 0 1 0 16 4a4 4 0 0 0 .12.93l-7.3 3.88a5 5 0 1 0 0 6.42l7.34 3.84A4 4 0 0 0 16 20a4 4 0 1 0 4-4z"></path></symbol><symbol viewBox="0 0 512 512" id="icon-spinner"><path d="M256 512c-68.38 0-132.667-26.629-181.02-74.98C26.629 388.667 0 324.38 0 256c0-48.419 13.591-95.567 39.303-136.346 25-39.648 60.332-71.686 102.178-92.65l21.5 42.916c-34.019 17.042-62.746 43.093-83.075 75.335C59.033 178.359 48 216.654 48 256c0 114.691 93.309 208 208 208s208-93.309 208-208c0-39.346-11.033-77.641-31.905-110.745-20.33-32.242-49.057-58.292-83.075-75.335l21.5-42.916c41.846 20.964 77.179 53.002 102.178 92.65C498.409 160.433 512 207.581 512 256c0 68.38-26.629 132.667-74.98 181.02C388.667 485.371 324.38 512 256 512z"></path></symbol><symbol viewBox="0 0 16.13 11.52" id="icon-tick"><path d="M5.53 11.52L0 5.99l.92-.92 4.61 4.61L15.21 0l.92.92-10.6 10.6z"></path></symbol><symbol viewBox="0 0 25.95 20.82" id="icon-twitter"><path d="M25.97 2.41a16.27 16.27 0 0 1-3.09.86A5.41 5.41 0 0 0 25.11.35a8.42 8.42 0 0 1-3.26 1.2 5.56 5.56 0 0 0-7.56-.17 6.62 6.62 0 0 0-1.55 3.78 2.92 2.92 0 0 0 .17 1.2 15.22 15.22 0 0 1-11-5.5 5.37 5.37 0 0 0 1.55 7 4 4 0 0 1-2.41-.69 5.17 5.17 0 0 0 4.3 5.15 3.77 3.77 0 0 1-2.41.17 5.15 5.15 0 0 0 5 3.61 11.21 11.21 0 0 1-6.7 2.23H-.03A15.17 15.17 0 0 0 23.34 5.96V5.1a6.69 6.69 0 0 0 2.63-2.69z"></path></symbol><symbol viewBox="0 0 1021.45 718.42" id="icon-youtube-flat"><path class="cls-1" d="M1011.25 155s-10-70.39-40.61-101.39c-38.84-40.69-82.38-40.9-102.34-43.28C725.36 0 510.95 0 510.95 0h-.44S296.09 0 153.15 10.33c-20 2.38-63.49 2.58-102.35 43.27C20.18 84.6 10.22 155 10.22 155S0 237.64 0 320.3v77.5c0 82.66 10.22 165.32 10.22 165.32s10 70.39 40.59 101.39c38.86 40.68 89.9 39.4 112.63 43.66 81.72 7.84 347.29 10.26 347.29 10.26s214.63-.32 357.57-10.66c20-2.38 63.5-2.58 102.35-43.27 30.63-31 40.61-101.39 40.61-101.39s10.2-82.66 10.2-165.32V320.3c-.01-82.66-10.21-165.3-10.21-165.3zm-606 336.72v-287l276 144z" data-name="YouTube Icon"></path></symbol></svg>