<svg xmlns="http://www.w3.org/2000/svg" viewBox="0 0 99.3 17.5"><title>Divio</title><path class="a" d="M97.9,1.2A4.69,4.69,0,0,0,94.6.1H81.2a4.69,4.69,0,0,0-3.3,1.1,3.67,3.67,0,0,0-1.2,3v9.2a3.83,3.83,0,0,0,1.2,3,4.27,4.27,0,0,0,3.3,1.1H94.7A5.11,5.11,0,0,0,98,16.4a3.85,3.85,0,0,0,1.3-3V4.2A3.56,3.56,0,0,0,97.9,1.2Zm-3,11.5a1.62,1.62,0,0,1-1.8,1.4H82.8A1.62,1.62,0,0,1,81,12.7V4.6a1.62,1.62,0,0,1,1.8-1.4H93.1a1.62,1.62,0,0,1,1.8,1.4Z"/><rect class="a" x="66.4" width="4.2" height="17.4"/><polygon class="a" points="50.2 12.7 42.8 0 38 0 48.6 17.5 51.5 17.5 61.6 0 57.2 0 50.2 12.7"/><rect class="a" x="28.4" width="4.2" height="17.4"/><path class="a" d="M21.4,1.1A4.69,4.69,0,0,0,18.1,0H0V17.4H18a5.11,5.11,0,0,0,3.3-1.1,3.85,3.85,0,0,0,1.3-3V4.1A3.67,3.67,0,0,0,21.4,1.1Zm-5,13H4.2V3.2H16.3a1.62,1.62,0,0,1,1.8,1.4v8.1h.1A1.62,1.62,0,0,1,16.4,14.1Z"/></svg>
