<svg xmlns="http://www.w3.org/2000/svg" viewBox="0 0 22.15 22.15"><title>instagram</title><path class="a" d="M11.07 2c3 0 3.31 0 4.47.06a6.13 6.13 0 0 1 2.06.38 3.43 3.43 0 0 1 1.27.83 3.43 3.43 0 0 1 .83 1.27 6.13 6.13 0 0 1 .38 2.06c.05 1.17.06 1.52.06 4.47s0 3.31-.06 4.47a6.13 6.13 0 0 1-.38 2.06 3.67 3.67 0 0 1-2.1 2.1 6.13 6.13 0 0 1-2.06.38c-1.17.05-1.52.06-4.47.06s-3.31 0-4.47-.06a6.13 6.13 0 0 1-2.06-.38 3.43 3.43 0 0 1-1.27-.83 3.43 3.43 0 0 1-.83-1.27 6.13 6.13 0 0 1-.38-2.06C2 14.38 2 14 2 11.07s0-3.31.06-4.47a6.13 6.13 0 0 1 .38-2.06 3.43 3.43 0 0 1 .83-1.27 3.43 3.43 0 0 1 1.27-.83 6.13 6.13 0 0 1 2.06-.38C7.77 2 8.12 2 11.07 2m0-2c-3 0-3.38 0-4.57.07a8.13 8.13 0 0 0-2.68.51 5.43 5.43 0 0 0-2 1.28 5.43 5.43 0 0 0-1.28 2 8.13 8.13 0 0 0-.47 2.65C0 7.69 0 8.07 0 11.07s0 3.38.07 4.57a8.13 8.13 0 0 0 .51 2.69 5.43 5.43 0 0 0 1.28 2 5.43 5.43 0 0 0 2 1.28 8.13 8.13 0 0 0 2.69.51c1.18.05 1.56.07 4.57.07s3.38 0 4.57-.07a8.13 8.13 0 0 0 2.69-.51 5.66 5.66 0 0 0 3.24-3.24 8.13 8.13 0 0 0 .51-2.69c.05-1.18.07-1.56.07-4.57s0-3.38-.07-4.57a8.13 8.13 0 0 0-.51-2.69 5.43 5.43 0 0 0-1.28-2 5.43 5.43 0 0 0-2-1.28 8.13 8.13 0 0 0-2.7-.5C14.46 0 14.08 0 11.07 0"/><path class="a" d="M11.07 5.39a5.69 5.69 0 1 0 5.69 5.69 5.69 5.69 0 0 0-5.69-5.69m0 9.38a3.69 3.69 0 1 1 3.69-3.69 3.69 3.69 0 0 1-3.69 3.69m7.24-9.61A1.33 1.33 0 1 1 17 3.83a1.33 1.33 0 0 1 1.33 1.33"/></svg>