<svg xmlns="http://www.w3.org/2000/svg" viewBox="0 0 224.51 249.04"><title>webpack</title><polygon class="a" points="6.91 191.9 107.81 249 107.81 204.56 44.92 169.97 6.91 191.9"/><polygon class="a" points="41.49 79.46 107.81 42.99 107.81 0 4.3 58.54 40.96 79.75 41.49 79.46"/><polygon class="a" points="183.5 79.8 220.16 58.54 116.7 0 116.7 42.99 182.97 79.5 183.5 79.8"/><polygon class="a" points="36.9 87.57 0 66.27 0 185.67 36.9 164.37 36.9 87.57"/><polygon class="a" points="116.7 204.61 116.7 249.04 217.6 191.9 179.59 169.97 116.7 204.61"/><polygon class="a" points="187.6 87.57 187.6 164.37 224.51 185.67 224.51 66.27 187.6 87.57"/><polygon class="a" points="112.25 50.67 49.94 84.92 112.25 120.85 174.51 84.92 112.25 50.67"/><polygon class="a" points="116.7 194.46 178.72 160.36 178.72 92.74 116.7 128.53 116.7 194.46"/><polygon class="a" points="45.79 160.31 107.81 194.46 107.81 128.53 45.79 92.74 45.79 160.31"/></svg>
